<?xml version="1.0" encoding="UTF-8"?>
<svg width="" height="" viewBox="0 0 872 198" version="1.1" xmlns="http://www.w3.org/2000/svg" xmlns:xlink="http://www.w3.org/1999/xlink">
    <!-- Generator: Sketch 56.3 (81716) - https://sketch.com -->
    <title>Tarento_logo</title>
    <desc>Created with Sketch.</desc>
    <g id="Page-1" stroke="none" stroke-width="1" fill="none" fill-rule="evenodd">
        <g id="Tarento_logo" transform="translate(-1.000000, -1.000000)" fill-rule="nonzero">
            <path d="M872.21,96.49 C871.39,99.82 870.76,103.21 869.7,106.49 C863.31,126.15 850.3,138.89 829.7,142.28 C804.01,146.5 779.03,132.45 772.29,103.91 C769.09,90.49 769.64,77.24 775.54,64.49 C784.1143,45.8446243 803.399465,34.5177825 823.86,36.11 C843.59,37.52 857.86,47.11 867.05,64.44 C869.626977,69.3838466 871.255053,74.7666737 871.85,80.31 C871.85,80.59 871.91,80.86 872.21,80.99 L872.21,96.49 Z M860.59,88.84 C860.573563,86.543515 860.426659,84.2498187 860.15,81.97 C857.62,61.61 841.38,47.09 820.89,47.0999948 C806.37,47.0999948 794.69,52.87 787.89,65.91 C779.83,81.33 780.21,97.29 788.44,112.53 C800.56,134.95 832.55,138.53 849.69,119.59 C857.56,110.87 860.38,100.29 860.59,88.82 L860.59,88.84 Z M601.93,58.15 C602.11,61.74 602.2,65.33 602.49,68.92 C603.32,79 603.07,89.1 603.09,99.2 C603.09,111.46 603.09,123.723333 603.09,135.99 C603.09,140.68 599.96,143.35 595.58,142.5 C593.242004,142.106323 591.435789,140.231106 591.13,137.88 C591.008391,137.052357 590.951552,136.216487 590.95918,135.38 C590.95918,105.213333 590.95918,75.04 590.95918,44.86 C590.95918,40.34 592.28,37.86 595.28,36.86 C598.46,35.79 601.6,37.13 604.18,40.66 L663.02,121.29 C663.38,121.79 663.76,122.29 664.13,122.77 C664.82,122.43 664.52,121.9 664.49,121.48 C662.2,94.98 663.39,68.42 663.13,41.89 C663.13,38.77 665.63,36.67 669.13,36.64 C672.63,36.61 674.99,38.59 675.19,41.64 C675.19,42.2 675.19,42.76 675.19,43.32 L675.19,133.63 C675.19,138.02 673.82,140.36 670.64,141.43 C666.967093,142.752136 662.867239,141.373095 660.74,138.1 L603.09,58.99 C602.85,58.66 602.58,58.36 602.32,58.04 L601.93,58.15 Z M456.2,104.49 C461.99,110.89 467.53,117.03 473.07,123.17 L481.61,132.63 C484.23,135.54 484.38,138.73 482.01,140.95 C479.47,143.34 475.82,142.95 473.18,140.05 C463.12,128.87 453.066667,117.683333 443.02,106.49 C442.253048,105.511218 441.062492,104.960586 439.82,105.01 C430.9,105.083333 421.983333,105.083333 413.07,105.01 C411.5,105.01 411.07,105.42 411.07,107.01 C411.14,116.63 411.12,126.24 411.07,135.86 C411.07,139.78 408.93,142.04 405.34,142.08 C401.75,142.12 399.5,140.01 399.5,136.32 C399.5,116.6 399.5,96.88 399.5,77.16 C399.5,66.0866667 399.5,55.01 399.5,43.93 C399.5,40.03 401.42,37.93 405.33,37.93 C419.13,37.93 432.93,37.82 446.72,38.06 C453.778169,38.1549831 460.706042,39.9744936 466.9,43.36 C479.81,50.43 485.73,63.28 483.81,77.79 C481.89,92.3 473.29,100.84 458.09,104.05 C457.61,104.11 457.09,104.26 456.2,104.49 Z M411.09,71.59 C411.09,78.59 411.15,85.67 411.09,92.7 C411.09,94.37 411.57,94.78 413.19,94.77 C423.08,94.69 432.98,94.71 442.87,94.77 C446.071724,94.8009733 449.269229,94.5297713 452.42,93.96 C458.42,92.83 463.98,90.71 468.01,85.86 C474.45,78.09 473.79,65.71 466.56,57.86 C460.36,51.17 452.3,48.95 443.56,48.86 C433.32,48.71 423.08,48.86 412.84,48.8 C411.48,48.8 411.1,49.15 411.11,50.52 C411.16,57.49 411.09,64.56 411.09,71.59 Z M497.09,89.49 L497.09,45.49 C497.09,40.89 499.84,37.97 504.44,37.97 C526.6,37.93 548.763333,37.93 570.93,37.97 C574.23,37.97 576.17,39.97 576.14,43.19 C576.11,46.41 574.09,48.49 570.66,48.49 C550.8,48.49 530.93,48.49 511.07,48.49 C509.07,48.49 508.5,48.91 508.52,50.97 C508.63,61.5 508.61,72.02 508.52,82.55 C508.52,84.36 508.86,84.98 510.85,84.97 C529.67,84.88 548.49,84.92 567.31,84.92 C570.96,84.92 573.02,87.11 572.81,90.71 C572.837176,91.9840132 572.331183,93.2115142 571.414121,94.0962991 C570.497058,94.9810841 569.252222,95.4427885 567.98,95.37 C563.31,95.37 558.64,95.37 553.98,95.37 C539.55,95.37 525.12,95.37 510.69,95.37 C508.9,95.37 508.52,95.9 508.53,97.59 C508.61,107.843333 508.61,118.09 508.53,128.33 C508.53,130.03 508.87,130.52 510.66,130.51 C530.53,130.44 550.39,130.51 570.26,130.51 C574.12,130.51 576.55,132.98 576.32,136.6 C576.271335,139.002641 574.456849,141.00071 572.07,141.28 C571.447504,141.368662 570.818389,141.402126 570.19,141.38 L504.95,141.38 C500.88,141.38 498.29,139.57 497.29,136.21 C497.08187,135.329489 497.007703,134.422628 497.07,133.52 C497.083333,118.773333 497.09,104.096667 497.09,89.49 Z M337.43,35.3197392 C339.62,35.3197392 341.22,36.72 342.33,38.96 C347.25,48.92 352.186667,58.8766667 357.14,68.83 C368.02,90.73 378.896667,112.626667 389.77,134.52 C391.21,137.43 390.43,139.92 387.65,141.39 C384.42,143.1 380.6,142.25 379.09,139.3 C376.25,133.74 373.53,128.11 370.77,122.51 C369.6,120.14 368.43,117.77 367.33,115.38 C367.029059,114.445029 366.117678,113.845765 365.14,113.94 C346.333333,113.98 327.523333,113.98 308.71,113.94 C307.664293,113.872686 306.710554,114.536157 306.41,115.54 C302.523333,123.386667 298.61,131.22 294.67,139.04 C292.93,142.5 289.67,143.47 286.28,141.58 C283.42,139.96 282.64,137.26 284.21,134.08 C288.63,125.08 293.1,116.16 297.54,107.2 C308.833333,84.4333333 320.113333,61.6533333 331.38,38.86 C332.57,36.43 334.36,35.3 337.43,35.3197392 Z M312.09,103.49 L361.56,103.49 L336.9,52.81 C328.54,69.92 320.35,86.64 312.09,103.49 Z M733.36,94.08 C733.36,108.44 733.36,122.8 733.36,137.16 C733.467172,140.319272 731.008189,142.974617 727.85,143.11 C724.8611,143.433067 722.14881,141.34262 721.7,138.37 C721.593306,137.400568 721.556544,136.424712 721.59,135.45 C721.59,107.496667 721.59,79.5466667 721.59,51.6 C721.59,49.6 721.12,49.07 719.1,49.09 C708.23,49.21 697.35,49.16 686.48,49.09 C683.61333,49.2787947 681.132927,47.1157045 680.93,44.25 C680.401996,41.5323723 682.018658,38.8566657 684.67,38.06 C685.555552,37.8612037 686.463002,37.7771804 687.37,37.81 C714.13,37.81 740.896667,37.81 767.67,37.81 C772.35,37.81 775.13,40.87 774.15,44.81 C773.47,47.54 771.41,49.07 768.25,49.07 C757.37,49.07 746.5,49.12 735.62,49.07 C733.82,49.07 733.19,49.38 733.2,51.38 C733.3,65.6 733.25,79.82 733.25,94.04 L733.36,94.08 Z M262.09,93.95 C262.09,108.303333 262.09,122.653333 262.09,137 C262.192409,138.585371 261.63318,140.142285 260.545423,141.30016 C259.457665,142.458034 257.938672,143.113304 256.35,143.11 C253.427503,143.315377 250.848698,141.213804 250.46,138.31 C250.333369,137.412576 250.286519,136.505695 250.32,135.6 C250.32,107.52 250.32,79.4433333 250.32,51.37 C250.32,49.56 249.94,49.08 248.08,49.1 C237.14,49.2 226.2,49.16 215.26,49.1 C213.853122,49.1928272 212.468198,48.7147802 211.418144,47.7738717 C210.36809,46.8329632 209.741518,45.5085941 209.68,44.1 C209.42,40.95 211.21,38.42 214.06,37.96 C214.818535,37.8549794 215.584643,37.814834 216.35,37.84 L296.2,37.84 C300.67,37.84 303.09,39.9 303.04076,43.59 C303.04076,46.96 300.71,49.12 297.04,49.13 C286.17,49.13 275.3,49.19 264.43,49.13 C262.5,49.13 261.89,49.46 261.91,51.55 C262.02,65.69 261.97,79.84 261.97,93.98 L262.09,93.95 Z" id="Combined-Shape" fill="#FFFFFF"></path>
            <path d="M85.09,198.94 C82.67,196.53 79.66,194.94 76.88,193.02 C52.3133333,176.16 27.7166667,159.343333 3.09,142.57 C1.65860004,141.732712 0.84316952,140.140867 1,138.49 C1.06,105.243333 1.06,71.9966667 1,38.75 L1,36.49 C1.88,36.24 2.32,36.92 2.84,37.27 C29.9266667,55.77 56.9966667,74.2933333 84.05,92.84 C85.1147336,93.822234 86.7552664,93.822234 87.82,92.84 C114.74,74.36 141.69,55.9133333 168.67,37.5 C169.28,37.08 169.92,36.69 170.59,36.25 C170.910812,36.9822357 171.004856,37.7938027 170.86,38.58 C170.86,71.9733333 170.88,105.36 170.92,138.74 C171.051637,140.24918 170.299659,141.698589 168.99,142.46 C141.903333,160.953333 114.83,179.47 87.77,198.01 C87.39,198.27 86.86,198.39 86.77,198.95 L85.09,198.94 Z M18.35,68.08 C18.2568704,68.3297917 18.1865826,68.5875136 18.1396435,68.85 C18.1396435,75.26 18.1396435,81.67 18.1396435,88.08 C18.1245922,88.932362 18.6096923,89.7147816 19.38,90.08 C23.07,92.57 26.73,95.08 30.38,97.61 C48.4266667,109.95 66.4633333,122.283333 84.49,134.61 C85.353095,135.439246 86.716905,135.439246 87.58,134.61 C90.33,132.61 93.19,130.73 96.01,128.81 C114.796667,115.963333 133.586667,103.116667 152.38,90.27 C153.416682,89.6980091 154.019969,88.5697832 153.92,87.39 C153.84,81.61 153.92,75.82 153.92,70.04 C153.92,69.52 154.2,68.82 153.62,68.52 C153.04,68.22 152.62,68.92 152.17,69.13 C151.928739,69.2682541 151.701063,69.4289665 151.49,69.61 C130.23,84.15 108.98,98.7 87.74,113.26 C86.8115483,114.109166 85.3884517,114.109166 84.46,113.26 C67.48,101.58 50.48,89.9433333 33.46,78.35 L18.35,68.08 Z M18.24,111.41 C18.18,111.98 18.1295408,112.23 18.1295408,112.48 C18.1295408,118.75 18.1295408,125.03 18.1295408,131.3 C18.1120917,132.202436 18.6192158,133.033339 19.43,133.43 C41.2166667,148.316667 62.9933333,163.223333 84.76,178.15 C85.4801081,178.814554 86.5898919,178.814554 87.31,178.15 C109.063333,163.21 130.84,148.303333 152.64,133.43 C153.531517,132.886739 154.029949,131.878194 153.92,130.84 C153.87,126.72 153.92,122.61 153.92,118.5 L153.92,111.37 C153.11,111.87 152.64,112.14 152.2,112.45 C130.666667,127.143333 109.163333,141.863333 87.69,156.61 C86.7033953,157.496824 85.2004906,157.475043 84.24,156.56 C65.7666667,143.86 47.2666667,131.193333 28.74,118.56 L18.24,111.41 Z" id="Shape" fill="#219190"></path>
            <path d="M105.73,12.3 L83.52,27.49 C73.1866667,34.5633333 62.8533333,41.6466667 52.52,48.74 C51.6708251,49.5656971 50.3256131,49.5876061 49.45,48.79 C44.45,45.25 39.45,41.84 34.13,38.23 L47.51,29.07 C60.89,19.9233333 74.2633333,10.7666667 87.63,1.6 C88.4850574,0.779655144 89.8349426,0.779655144 90.69,1.6 C95.17,4.78 99.69,7.84 104.27,10.95 C104.884263,11.2386356 105.394229,11.7101796 105.73,12.3 L105.73,12.3 Z" id="Path" fill="#FFFFFF"></path>
            <path d="M140.99,36.08 L119.22,50.96 C108.653333,58.18 98.0933333,65.4133333 87.54,72.66 C86.6836537,73.486761 85.3263463,73.486761 84.47,72.66 C79.88,69.39 75.22,66.23 70.53,63.11 C69.31,62.3 69.36,61.96 70.53,61.11 C88.01,49.2033333 105.466667,37.27 122.9,25.31 C123.61,24.82 124.15,24.42 125.09,25.07 C130.28,28.79 135.52,32.33 140.99,36.08 Z" id="Path" fill="#FFFFFF"></path>
        </g>
    </g>
</svg>